<svg xmlns="http://www.w3.org/2000/svg" width="34.348" height="46.359" viewBox="0 0 34.348 46.359"><g transform="translate(-0.001)"><path d="M57.777,7.889a3.945,3.945,0,1,0-3.945-3.945A3.949,3.949,0,0,0,57.777,7.889Zm0-6.07a2.125,2.125,0,1,1-2.125,2.125A2.127,2.127,0,0,1,57.777,1.82Zm0,0" transform="translate(-48.957)"/><path d="M176.968,0a3.945,3.945,0,1,0,3.945,3.945A3.949,3.949,0,0,0,176.968,0Zm0,6.069a2.125,2.125,0,1,1,2.125-2.125A2.127,2.127,0,0,1,176.968,6.069Zm0,0" transform="translate(-157.357)"/><path d="M296.155,7.889a3.945,3.945,0,1,0-3.945-3.945A3.949,3.949,0,0,0,296.155,7.889Zm0-6.07a2.125,2.125,0,1,1-2.125,2.125,2.127,2.127,0,0,1,2.125-2.125Zm0,0" transform="translate(-265.752)"/><path d="M176.968,103.629a3.945,3.945,0,1,0,3.945,3.945A3.949,3.949,0,0,0,176.968,103.629Zm0,6.07a2.125,2.125,0,1,1,2.125-2.125A2.127,2.127,0,0,1,176.968,109.7Zm0,0" transform="translate(-157.357 -94.246)"/><path d="M296.155,103.629a3.945,3.945,0,1,0,3.945,3.945A3.949,3.949,0,0,0,296.155,103.629Zm0,6.07a2.125,2.125,0,1,1,2.125-2.125A2.127,2.127,0,0,1,296.155,109.7Zm0,0" transform="translate(-265.752 -94.246)"/><path d="M296.155,207.258A3.945,3.945,0,1,0,300.1,211.2,3.949,3.949,0,0,0,296.155,207.258Zm0,6.07a2.125,2.125,0,1,1,2.125-2.125A2.127,2.127,0,0,1,296.155,213.328Zm0,0" transform="translate(-265.752 -188.492)"/><path d="M21.588,130.241l.346-.477a3.961,3.961,0,0,0,.908-2.527.91.91,0,1,0-1.82,0,2.186,2.186,0,0,1-.562,1.459l-.346.477a3.246,3.246,0,0,0-.621,1.916v2.44H8.128v-1.943a3.928,3.928,0,0,0-1.158-2.8l-1.662-1.662a3.313,3.313,0,0,1-.977-2.358v-.929a12.864,12.864,0,0,0-.972-4.918l-1.5-3.64a.558.558,0,0,1,.676-.747,3.025,3.025,0,0,1,1.807,1.475l.331.616a9.862,9.862,0,0,1,1.007,2.854l.167.888a.91.91,0,0,0,1.8-.168V105.38a.979.979,0,0,1,.259-.665l.012-.013a.982.982,0,0,1,1.706.665v11.722a.91.91,0,1,0,1.82,0v-5.526a.777.777,0,0,1,.287-.6,1.036,1.036,0,0,1,1.69.8v5.855a.91.91,0,1,0,1.82,0v-3.588a1.8,1.8,0,0,1,.248-.94.9.9,0,0,1,.566-.418.85.85,0,0,1,.651.1l.066.041a.833.833,0,0,1,.394.71v5.044a.91.91,0,0,0,1.82,0v-1.614a1.613,1.613,0,0,1,.289-.924.949.949,0,0,1,1.741.531v3.506a.91.91,0,1,0,1.82,0v-3.506a2.788,2.788,0,0,0-2.28-2.741,2.711,2.711,0,0,0-1.57.183v-.478a2.643,2.643,0,0,0-1.249-2.254l-.075-.047a2.656,2.656,0,0,0-2.038-.319,2.774,2.774,0,0,0-.468.159,2.861,2.861,0,0,0-3.711-2v-3.694a2.81,2.81,0,0,0-.9-2.061,2.8,2.8,0,0,0-3.962.165l-.012.013a2.794,2.794,0,0,0-.739,1.9v9.567a4.827,4.827,0,0,0-2.772-2.155,2.378,2.378,0,0,0-2.882,3.182l1.5,3.64a11.063,11.063,0,0,1,.835,4.226v.929a5.122,5.122,0,0,0,1.51,3.645l1.663,1.663a2.12,2.12,0,0,1,.625,1.508v1.968H5.785a.91.91,0,0,0-.91.911l.007,4.263a.91.91,0,0,0,.91.909h0l15.793,0a.91.91,0,0,0,.91-.911l-.007-4.263a.91.91,0,0,0-.91-.909h-.265v-2.46a1.441,1.441,0,0,1,.275-.849ZM6.7,137.816l0-2.443,13.973,0,0,2.443Zm0,0" transform="translate(0 -93.277)"/><path d="M17.092,80.005l1.4.809a.91.91,0,1,0,.91-1.576L18,78.429a.91.91,0,1,0-.91,1.576Zm0,0" transform="translate(-15.13 -71.217)"/><path d="M11.967,128.152a.933.933,0,0,0,.181-.018l1.586-.32a.91.91,0,1,0-.36-1.784l-1.586.32a.91.91,0,0,0,.179,1.8Zm0,0" transform="translate(-10.056 -114.602)"/><path d="M233.873,325.692a.91.91,0,0,0-1.687.682l.009.021a.91.91,0,1,0,1.687-.682Zm0,0" transform="translate(-211.101 -295.685)"/></g></svg>