<svg xmlns="http://www.w3.org/2000/svg" width="45.213" height="41.8" viewBox="0 0 45.213 41.8"><g transform="translate(0 -1.774)"><g transform="translate(0 1.774)"><path d="M45.123,19.422a.95.95,0,0,0-.859-.547H41.445A20.884,20.884,0,1,0,39,33.129a1.9,1.9,0,1,0-3.289-1.9,17.12,17.12,0,1,1,1.846-12.353H34.763a.95.95,0,0,0-.73,1.558l4.75,5.7a.952.952,0,0,0,1.459,0l4.75-5.7A.948.948,0,0,0,45.123,19.422Z" transform="translate(0 -1.774)"/><path d="M23.573,15.2,22.2,9.711a3.239,3.239,0,0,0-2.225-2.324V6.674a3.7,3.7,0,0,0-2.365-3.44A4.146,4.146,0,0,0,11.884.748,3.691,3.691,0,0,0,6,3.23,3.689,3.689,0,0,0,3.625,6.674v.713A3.239,3.239,0,0,0,1.4,9.711L.026,15.2A.922.922,0,0,0,.92,16.35H22.678a.922.922,0,0,0,.894-1.146ZM7.041,4.853a.922.922,0,0,0,.785-1A1.843,1.843,0,0,1,11.058,2.49a.922.922,0,0,0,1.25.144,2.3,2.3,0,0,1,3.62,1.48.922.922,0,0,0,.727.755,1.846,1.846,0,0,1,1.474,1.8v.58H5.469v-.58A1.849,1.849,0,0,1,7.041,4.853ZM2.1,14.506l1.087-4.348A1.4,1.4,0,0,1,4.547,9.1H19.052a1.4,1.4,0,0,1,1.358,1.061L21.5,14.506Zm0,0" transform="translate(8.592 11.373)"/></g></g></svg>