<svg xmlns="http://www.w3.org/2000/svg" width="41.1" height="38.911" viewBox="0 0 41.1 38.911"><g transform="translate(0 -13)"><g transform="translate(0 13)"><path d="M1.035,220.9A1.035,1.035,0,0,0,0,221.935v19.338a1.035,1.035,0,0,0,1.035,1.035H10.49a1.035,1.035,0,0,0,1.035-1.035V221.935A1.035,1.035,0,0,0,10.49,220.9Zm8.419,19.338H2.063V222.963H9.454Z" transform="translate(0 -203.398)"/><path d="M175.7,14.035v36.84a1.035,1.035,0,0,0,1.036,1.035h9.454a1.035,1.035,0,0,0,1.035-1.035V14.035A1.035,1.035,0,0,0,186.19,13h-9.463A1.038,1.038,0,0,0,175.7,14.035Zm2.063,1.035h7.392V49.849h-7.392V15.071Z" transform="translate(-160.908 -13)"/><path d="M361.79,182.681a1.035,1.035,0,0,0,1.036-1.035v-24.81a1.035,1.035,0,0,0-1.036-1.035h-9.454a1.035,1.035,0,0,0-1.035,1.035v24.818a1.035,1.035,0,0,0,1.035,1.035h9.454Zm-8.419-24.81h7.392v22.756h-7.392Z" transform="translate(-321.725 -143.778)"/></g></g></svg>