<svg xmlns="http://www.w3.org/2000/svg" width="39.2" height="39.201" viewBox="0 0 39.2 39.201"><g transform="translate(0 0.001)"><path d="M192.766,452a.766.766,0,1,0,.541.224A.772.772,0,0,0,192.766,452Zm0,0" transform="translate(-177.3 -417.393)"/><path d="M38.384,10.437a2.794,2.794,0,0,0-3.946,0l-3.505,3.505V2.6a2.606,2.606,0,0,0-2.6-2.6H2.6A2.606,2.606,0,0,0,0,2.6V36.6a2.606,2.606,0,0,0,2.6,2.6H28.329a2.606,2.606,0,0,0,2.6-2.6V21.835l7.452-7.452a2.794,2.794,0,0,0,0-3.946ZM29.4,2.6V15.473L27.869,17V3.828a.766.766,0,0,0-.766-.766H21.987V1.531h6.342A1.073,1.073,0,0,1,29.4,2.6Zm-4.181,21,1.034-2.322,1.288,1.288ZM20.455,1.531v3.12a.862.862,0,0,1-.861.861H11.338a.862.862,0,0,1-.861-.861V1.531Zm7.873,36.139H2.6A1.073,1.073,0,0,1,1.531,36.6V2.6A1.073,1.073,0,0,1,2.6,1.531H8.945V3.062H3.828a.766.766,0,0,0-.766.766V35.372a.766.766,0,0,0,.766.766H12.4a.766.766,0,0,0,0-1.531H4.594V4.593H8.945v.057a2.4,2.4,0,0,0,2.393,2.393h8.256a2.4,2.4,0,0,0,2.393-2.393V4.593h4.351V18.536l-.872.872a.775.775,0,0,0-.158.23L23.01,24.8a.766.766,0,0,0,1.011,1.011l2.317-1.032v9.828h-7.81a.766.766,0,0,0,0,1.531H27.1a.766.766,0,0,0,.766-.766V24.1l1.313-.585a.763.763,0,0,0,.218-.147V36.6a1.073,1.073,0,0,1-1.072,1.072Zm6.118-21.515L28.871,21.73,27.09,19.949l6.9-6.9,1.781,1.781ZM37.3,13.3l-.443.443-1.781-1.781.443-.443A1.259,1.259,0,0,1,37.3,13.3Zm0,0"/><path d="M93.666,120h-4.9a.766.766,0,0,0-.766.766v4.9a.766.766,0,0,0,.766.766h4.9a.766.766,0,0,0,.766-.766v-4.9A.766.766,0,0,0,93.666,120Zm-.766,4.9H89.531v-3.369H92.9Zm0,0" transform="translate(-81.263 -110.813)"/><path d="M93.666,230h-4.9a.766.766,0,0,0-.766.766v4.9a.766.766,0,0,0,.766.766h4.9a.766.766,0,0,0,.766-.766v-4.9A.766.766,0,0,0,93.666,230Zm-.766,4.9H89.531v-3.369H92.9Zm0,0" transform="translate(-81.263 -212.391)"/><path d="M93.666,340h-4.9a.766.766,0,0,0-.766.766v4.9a.766.766,0,0,0,.766.766h4.9a.766.766,0,0,0,.766-.766v-4.9A.766.766,0,0,0,93.666,340Zm-.766,4.9H89.531v-3.369H92.9Zm0,0" transform="translate(-81.263 -313.968)"/><path d="M210.329,134.19a.765.765,0,0,0,1.083,0l3.457-3.457a.766.766,0,1,0-1.083-1.083l-2.915,2.915-1.162-1.162a.766.766,0,1,0-1.083,1.083Zm0,0" transform="translate(-192.445 -119.517)"/><path d="M210.329,244.193a.765.765,0,0,0,1.083,0l3.457-3.456a.766.766,0,1,0-1.083-1.083l-2.915,2.915-1.162-1.162a.766.766,0,1,0-1.083,1.083Zm0,0" transform="translate(-192.445 -221.098)"/><path d="M222.021,353l1.187,1.187a.766.766,0,0,0,1.083-1.083L223.1,351.92l1.187-1.187a.766.766,0,0,0-1.083-1.083l-1.187,1.187-1.187-1.187a.766.766,0,0,0-1.083,1.083l1.187,1.187-1.187,1.187a.766.766,0,0,0,1.083,1.083Zm0,0" transform="translate(-202.719 -322.673)"/></g></svg>