<svg xmlns="http://www.w3.org/2000/svg" width="42.8" height="44.439" viewBox="0 0 42.8 44.439"><g transform="translate(-9.148)"><g transform="translate(9.148 23.616)"><g transform="translate(0)"><path d="M51.249,267.061a.508.508,0,0,0-.072-.116,3.326,3.326,0,0,0-4.677-.484c-1.792,1.46-4.4,3.566-6.092,4.937a7.081,7.081,0,0,1-4.193,1.559l-4.587.152a.518.518,0,0,1-.457-.242l-.511-.878a.48.48,0,0,1-.027-.466.5.5,0,0,1,.367-.287l4.74-.9a3.3,3.3,0,0,0,2.643-3.6,3.241,3.241,0,0,0-3.225-2.885H35l-6.334-.26a14.492,14.492,0,0,0-7.23,1.622l-3.315,1.6a2.8,2.8,0,0,0-2.518-1.586H11.934a2.772,2.772,0,0,0-2.786,2.76v13.645a2.786,2.786,0,0,0,2.786,2.768H15.6a2.778,2.778,0,0,0,2.777-2.768v-.923l3.521-.645a13.827,13.827,0,0,1,3.064-.179l9.631.448a13.9,13.9,0,0,0,9.524-3.216l6.675-5.537.009-.009A3.279,3.279,0,0,0,51.249,267.061ZM16.584,281.639a.979.979,0,0,1-.977.977H11.917a.979.979,0,0,1-.977-.977V268a.979.979,0,0,1,.977-.977h3.691a.979.979,0,0,1,.977.977Zm33.061-11.432-6.666,5.528a12.18,12.18,0,0,1-8.305,2.8l-9.631-.448a15.86,15.86,0,0,0-3.423.2.033.033,0,0,0-.027.009l-3.216.591V268.674l3.835-1.855a12.762,12.762,0,0,1,6.379-1.443l6.379.26h.188a1.477,1.477,0,0,1,1.451,1.29,1.5,1.5,0,0,1-1.192,1.64l-4.74.9a2.3,2.3,0,0,0-1.828,2.688,2.351,2.351,0,0,0,.278.735l.511.869a2.306,2.306,0,0,0,2.061,1.129l4.587-.152a8.993,8.993,0,0,0,5.259-1.953c1.693-1.371,4.31-3.476,6.1-4.937a1.556,1.556,0,0,1,2.114.188.746.746,0,0,0,.072.108A1.483,1.483,0,0,1,49.645,270.206Z" transform="translate(-9.148 -263.584)"/></g></g><g transform="translate(25.947)"><path d="M208.367,0a11.724,11.724,0,1,0,11.719,11.728A11.735,11.735,0,0,0,208.367,0Zm.009,21.655a9.934,9.934,0,0,1-9.936-9.927v-.009a9.932,9.932,0,1,1,9.936,9.936Z" transform="translate(-196.648)"/></g><g transform="translate(33.267 5.913)"><path d="M286.249,69.046h-1.2a3.761,3.761,0,0,0-.52-1.254h1.72a.9.9,0,1,0,0-1.792h-7.006a.9.9,0,0,0,0,1.792h2.007a2.141,2.141,0,0,1,1.908,1.254h-3.915a.9.9,0,0,0,0,1.792h3.915a2.854,2.854,0,0,1-.412.564,2.091,2.091,0,0,1-1.5.6h-2.007a.9.9,0,0,0-.9.914.925.925,0,0,0,.278.645l5.008,4.74A.894.894,0,0,0,284.86,77l-3.378-3.2A3.862,3.862,0,0,0,284,72.684a4.012,4.012,0,0,0,1.048-1.846h1.2a.9.9,0,1,0,0-1.792Z" transform="translate(-278.346 -66)"/></g></g></svg>