<svg xmlns="http://www.w3.org/2000/svg" width="45.666" height="44.783" viewBox="0 0 45.666 44.783"><g transform="translate(0.001 -4.441)"><g transform="translate(-0.001 4.441)"><g transform="translate(0 0)"><path d="M192.233,12.744a4.151,4.151,0,1,0-4.151-4.151A4.151,4.151,0,0,0,192.233,12.744Zm0-6.227a2.076,2.076,0,1,1-2.076,2.076A2.076,2.076,0,0,1,192.233,6.517Z" transform="translate(-169.401 -4.441)"/><path d="M165.508,94.8h-2.961a5.656,5.656,0,0,0-5.811,5.5c0,.018,0,.037,0,.055v.83c0,.571.571.882,1.142.882h12.247c.571,0,1.142-.311,1.142-.882v-.83A5.656,5.656,0,0,0,165.508,94.8Zm-6.593,5.19a3.663,3.663,0,0,1,3.632-3.114h2.906a3.662,3.662,0,0,1,3.632,3.114Z" transform="translate(-141.167 -85.827)"/><path d="M50.671,132.289a1.038,1.038,0,0,0,1.038-1.038,15.827,15.827,0,0,1,5.916-12.35,1.038,1.038,0,0,0-1.3-1.609,17.851,17.851,0,0,0-6.694,13.959A1.038,1.038,0,0,0,50.671,132.289Z" transform="translate(-44.703 -105.927)"/><path d="M177.389,409.75l-.024.009a15.776,15.776,0,0,1-10.015,0,1.038,1.038,0,0,0-1.3.675.986.986,0,0,0,.562,1.276l.061.021a17.747,17.747,0,0,0,11.364,0,1.09,1.09,0,0,0,.675-1.349A1.038,1.038,0,0,0,177.389,409.75Z" transform="translate(-149.498 -369.439)"/><path d="M317.775,112.077A15.775,15.775,0,0,1,324.469,125a1.038,1.038,0,1,0,2.076,0,18.007,18.007,0,0,0-7.576-14.634,1.044,1.044,0,1,0-1.194,1.712Z" transform="translate(-285.809 -99.675)"/><path d="M35.5,300.091a4.151,4.151,0,1,0-4.151-4.151A4.151,4.151,0,0,0,35.5,300.091Zm0-6.227a2.076,2.076,0,1,1-2.076,2.076A2.076,2.076,0,0,1,35.5,293.864Z" transform="translate(-28.233 -263.247)"/><path d="M8.772,382.151H5.811A5.656,5.656,0,0,0,0,387.649c0,.018,0,.037,0,.055v.83c0,.571.571.882,1.142.882H13.387c.571,0,1.142-.311,1.142-.882v-.83A5.656,5.656,0,0,0,8.772,382.151Zm-6.593,5.19a3.663,3.663,0,0,1,3.632-3.114H8.717a3.662,3.662,0,0,1,3.632,3.114Z" transform="translate(0.001 -344.633)"/><path d="M344.816,295.939a4.151,4.151,0,1,0,4.151-4.151A4.151,4.151,0,0,0,344.816,295.939Zm6.227,0a2.076,2.076,0,1,1-2.076-2.076A2.076,2.076,0,0,1,351.043,295.939Z" transform="translate(-310.567 -263.247)"/><path d="M322.242,382.151h-2.961a5.656,5.656,0,0,0-5.811,5.5c0,.018,0,.037,0,.055v.83c0,.571.571.882,1.142.882h12.247c.571,0,1.142-.311,1.142-.882v-.83A5.656,5.656,0,0,0,322.242,382.151Zm-6.593,5.19a3.663,3.663,0,0,1,3.632-3.114h2.906a3.663,3.663,0,0,1,3.632,3.114Z" transform="translate(-282.333 -344.633)"/></g></g></g></svg>