<svg xmlns="http://www.w3.org/2000/svg" width="43.4" height="46.293" viewBox="0 0 43.4 46.293"><path d="M360.027,272.356A1.356,1.356,0,1,0,361.383,271,1.356,1.356,0,0,0,360.027,272.356Zm0,0" transform="translate(-351.892 -246.497)"/><path d="M29.838,1.356V16.365H42.044A1.356,1.356,0,0,1,43.4,17.722v5.425A1.356,1.356,0,0,1,42.044,24.5H29.838V36.8a1.356,1.356,0,0,1-1.356,1.356H16.275v6.781A1.356,1.356,0,0,1,14.221,46.1L.658,37.963A1.357,1.357,0,0,1,0,36.8V1.356A1.357,1.357,0,0,1,1.341,0h27.14a1.356,1.356,0,0,1,1.356,1.356ZM40.688,21.79V19.078H28.481a1.356,1.356,0,0,1-1.356-1.356v-.178l-4.336,2.891,4.336,2.891v-.178a1.356,1.356,0,0,1,1.356-1.356ZM2.713,36.032l10.85,6.51V10.262L2.713,3.752ZM6.253,2.713l9.364,5.618a1.357,1.357,0,0,1,.658,1.163v25.95h10.85V26.585l-7.534-5.022a1.356,1.356,0,0,1,0-2.257l7.534-5.022V2.712Zm0,0"/></svg>