<svg xmlns="http://www.w3.org/2000/svg" width="71.5" height="40.857" viewBox="0 0 71.5 40.857"><g transform="translate(-71.66)"><g transform="translate(71.66)"><g transform="translate(0)"><path d="M94.885,5.148V2.39A2.393,2.393,0,0,0,92.495,0H80.246a2.393,2.393,0,0,0-2.39,2.39V5.148l-6.2,9.084V40.857h29.42V14.233Zm-14.6-2.721H92.457V4.309H80.283Zm3.768,36H74.087V14.982l4.982-7.3,4.982,7.3V38.43ZM81.366,6.736H93.03l4.54,6.657H85.906ZM98.653,38.43H86.478V15.821H98.653Z" transform="translate(-71.66)"/></g></g><g transform="translate(88.096 17.439)"><path d="M277.631,218.537v10.811h8.938V218.537Zm6.511,8.384h-4.084v-5.957h4.084Z" transform="translate(-277.631 -218.537)"/></g><g transform="translate(88.086 29.868)"><g transform="translate(0)"><rect width="8.958" height="2.427"/></g></g><g transform="translate(88.086 33.914)"><g transform="translate(0)"><rect width="8.958" height="2.427"/></g></g><g transform="translate(102.303)"><path d="M0,482H40.857v2.394H0Z" transform="translate(0 -443.537)"/><path d="M28.847,0V8.02H19.232v8.02H9.616v8.02H0v12.01H40.857V0ZM19.232,18.434V33.675H12.01V18.434ZM2.394,26.453H9.616v7.222H2.394Zm19.232,7.222V10.414h7.222V33.675Zm16.838,0H31.241V2.394h7.222Z"/></g></g></svg>