<svg xmlns="http://www.w3.org/2000/svg" width="47.827" height="41.8" viewBox="0 0 47.827 41.8"><g transform="translate(0 0)"><path d="M90.42,187.312a11.645,11.645,0,0,0-19.61,0l-5.186,8.09A7.371,7.371,0,0,0,74.8,206.128l.1-.042a14.49,14.49,0,0,1,11.541.042,7.33,7.33,0,0,0,2.958.626,7.424,7.424,0,0,0,1.65-.187A7.372,7.372,0,0,0,95.606,195.4Zm2.452,15.037a4.542,4.542,0,0,1-5.31,1.213,17.3,17.3,0,0,0-13.891,0l-.063.028a4.568,4.568,0,0,1-5.623-6.673l5.186-8.09a8.842,8.842,0,0,1,14.889,0l5.185,8.09A4.542,4.542,0,0,1,92.872,202.349Zm0,0" transform="translate(-58.438 -164.953)"/><path d="M8.584,112a5.655,5.655,0,0,0,3.3-3.5,7.305,7.305,0,0,0-.129-5.037,7.31,7.31,0,0,0-3.281-3.823,5.655,5.655,0,0,0-4.794-.386C.581,100.449-.841,104.278.51,107.8a6.829,6.829,0,0,0,6.142,4.567A5.354,5.354,0,0,0,8.584,112Zm-5.457-5.216c-.8-2.073-.1-4.277,1.56-4.914a2.6,2.6,0,0,1,.938-.173,3.162,3.162,0,0,1,1.509.406,4.5,4.5,0,0,1,2,2.367,4.5,4.5,0,0,1,.1,3.1,2.9,2.9,0,0,1-1.661,1.814h0c-1.655.638-3.651-.529-4.45-2.6Zm0,0" transform="translate(0 -89.656)"/><path d="M131.438,16.01c3.874,0,7.025-3.591,7.025-8S135.312,0,131.438,0s-7.024,3.591-7.024,8.006S127.565,16.01,131.438,16.01Zm0-13.206c2.328,0,4.222,2.334,4.222,5.2s-1.894,5.2-4.222,5.2-4.221-2.333-4.221-5.2,1.893-5.2,4.221-5.2Zm0,0" transform="translate(-112.793 0)"/><path d="M288.426,54.47h0a5.726,5.726,0,0,0,1.809.292,7.281,7.281,0,0,0,6.629-5.216,7.849,7.849,0,0,0-.112-5.415,5.939,5.939,0,0,0-8.8-2.926,7.85,7.85,0,0,0-3.331,4.271c-1.275,3.837.433,7.872,3.809,8.995Zm-1.149-8.11A5.049,5.049,0,0,1,289.4,43.6a3.141,3.141,0,0,1,4.753,1.58,5.047,5.047,0,0,1,.05,3.479c-.788,2.37-2.983,3.782-4.893,3.148S286.489,48.73,287.277,46.36Zm0,0" transform="translate(-257.648 -36.494)"/><path d="M387.117,172.118h0c-2.671-1.973-6.667-1.118-8.907,1.908s-1.888,7.1.779,9.072a5.492,5.492,0,0,0,3.3,1.065,7.1,7.1,0,0,0,5.609-2.971c2.238-3.027,1.888-7.1-.779-9.072Zm-1.474,7.4c-1.323,1.785-3.559,2.378-4.986,1.321s-1.513-3.367-.194-5.151a4.3,4.3,0,0,1,3.338-1.843,2.739,2.739,0,0,1,1.649.524C386.875,175.428,386.961,177.739,385.643,179.522Zm0,0" transform="translate(-341.544 -155.076)"/></g></svg>