<svg xmlns="http://www.w3.org/2000/svg" width="33.467" height="44.622" viewBox="0 0 33.467 44.622"><g transform="translate(-64)"><g transform="translate(69.58 16.734)"><path d="M138.77,192.417a1.4,1.4,0,0,0-1.975,0l-4.591,4.593-1.8-1.8a1.394,1.394,0,0,0-1.972,1.972l2.789,2.789a1.381,1.381,0,0,0,.984.41,1.4,1.4,0,0,0,.987-.407l5.578-5.578A1.4,1.4,0,0,0,138.77,192.417Z" transform="translate(-128.024 -192.008)"/></g><g transform="translate(69.58 27.89)"><path d="M138.77,320.417a1.4,1.4,0,0,0-1.975,0l-4.591,4.593-1.8-1.8a1.394,1.394,0,0,0-1.972,1.972l2.789,2.789a1.4,1.4,0,0,0,1.972,0l5.578-5.578A1.4,1.4,0,0,0,138.77,320.417Z" transform="translate(-128.024 -320.008)"/></g><g transform="translate(83.522 19.522)"><path d="M294.972,224h-5.578a1.394,1.394,0,0,0,0,2.789h5.578a1.394,1.394,0,0,0,0-2.789Z" transform="translate(-288 -224)"/></g><g transform="translate(83.522 30.678)"><path d="M294.972,352h-5.578a1.394,1.394,0,1,0,0,2.789h5.578a1.394,1.394,0,0,0,0-2.789Z" transform="translate(-288 -352)"/></g><g transform="translate(64)"><path d="M94.678,5.578H89.1V4.183a1.4,1.4,0,0,0-1.394-1.394H84.68a4.186,4.186,0,0,0-7.893,0H73.761a1.4,1.4,0,0,0-1.394,1.394V5.578H66.789A2.793,2.793,0,0,0,64,8.367V41.833a2.793,2.793,0,0,0,2.789,2.789H94.678a2.793,2.793,0,0,0,2.789-2.789V8.367A2.793,2.793,0,0,0,94.678,5.578Zm-19.522,0h2.789a1.4,1.4,0,0,0,1.394-1.394,1.394,1.394,0,1,1,2.789,0,1.4,1.4,0,0,0,1.394,1.394h2.789V8.367H75.156ZM94.678,41.833H66.789V8.367h5.578V9.761a1.4,1.4,0,0,0,1.394,1.394H87.706A1.4,1.4,0,0,0,89.1,9.761V8.367h5.578Z" transform="translate(-64)"/></g></g></svg>