<svg xmlns="http://www.w3.org/2000/svg" width="39.666" height="39.667" viewBox="0 0 39.666 39.667"><g transform="translate(-0.001)"><path d="M38.416,2.065H21.086V1.251a1.251,1.251,0,0,0-2.5,0v.813H1.252A1.251,1.251,0,0,0,0,3.316V7.445A1.251,1.251,0,0,0,1.252,8.7h.813v21.46a1.251,1.251,0,0,0,1.251,1.251H17.332l-4.692,6.257a1.251,1.251,0,1,0,2,1.5l3.942-5.256v4.5a1.251,1.251,0,0,0,2.5,0v-4.5l3.942,5.256a1.251,1.251,0,0,0,2-1.5l-4.692-6.257H36.352A1.251,1.251,0,0,0,37.6,30.157V8.7h.814a1.251,1.251,0,0,0,1.251-1.251V3.316A1.251,1.251,0,0,0,38.416,2.065ZM2.5,6.194V4.567H37.165V6.194ZM35.1,28.905H4.568V8.7H35.1V28.905Z"/><path d="M63.087,126.176H81.669a1.251,1.251,0,1,0,0-2.5H63.087a1.251,1.251,0,0,0,0,2.5Z" transform="translate(-53.576 -107.155)"/><path d="M63.087,95.258h4.129a1.251,1.251,0,0,0,0-2.5H63.087a1.251,1.251,0,0,0,0,2.5Z" transform="translate(-53.576 -80.367)"/><path d="M63.087,157.093H75.475a1.251,1.251,0,1,0,0-2.5H63.087a1.251,1.251,0,0,0,0,2.5Z" transform="translate(-53.576 -133.943)"/></g></svg>